<svg width="32" height="32" viewBox="0 0 32 32" fill="none" xmlns="http://www.w3.org/2000/svg">
<g clip-path="url(#clip0_674_1365)">
<path fill-rule="evenodd" clip-rule="evenodd" d="M29.3328 4C30.8048 4 32 5.1936 32 6.6672V25.3328C32 26.8048 30.8064 28 29.3328 28H2.6672C1.1952 28 0 26.8064 0 25.3328V6.6672C0 5.1952 1.1936 4 2.6672 4H29.3328ZM11.4688 18.1248L3.6128 25.888H28.1328L20.3616 18.2048L16 21.224L11.4688 18.1248ZM29.824 11.6672L22.1504 16.9728L29.824 24.5504V11.6672ZM2.1776 11.7648V24.3024L9.6752 16.8928L2.1776 11.7648ZM29.3072 6.1136H2.7168C2.57079 6.10675 2.42769 6.15598 2.3168 6.2512C2.26752 6.29533 2.22948 6.35057 2.20583 6.41235C2.18218 6.47412 2.1736 6.54065 2.1808 6.6064V9.1984L16 18.6496L29.8304 9.1056V6.7184C29.832 6.504 29.7824 6.3488 29.6832 6.2512C29.6339 6.20327 29.5752 6.16625 29.5106 6.14254C29.4461 6.11884 29.3774 6.10897 29.3088 6.1136H29.3072Z" fill="white"/>
</g>
<defs>
<clipPath id="clip0_674_1365">
<rect width="32" height="32" fill="white"/>
</clipPath>
</defs>
</svg>
