<svg width="24" height="24" viewBox="0 0 24 24" fill="none" xmlns="http://www.w3.org/2000/svg">
<path fill-rule="evenodd" clip-rule="evenodd" d="M2.82723 0.766232C3.08969 0.504165 3.40485 0.300869 3.75183 0.169817C4.0988 0.0387646 4.46966 -0.0170519 4.83984 0.00606638C5.21002 0.0291847 5.57105 0.13071 5.89902 0.303914C6.227 0.477118 6.51441 0.718046 6.74223 1.01073L9.43473 4.46973C9.92823 5.10423 10.1022 5.93073 9.90723 6.71073L9.08673 9.99573C9.04431 10.1659 9.0466 10.3441 9.09338 10.5131C9.14017 10.6821 9.22985 10.8361 9.35373 10.9602L13.0392 14.6457C13.1635 14.7699 13.3178 14.8597 13.4871 14.9065C13.6563 14.9533 13.8349 14.9554 14.0052 14.9127L17.2887 14.0922C17.6737 13.996 18.0754 13.9885 18.4636 14.0704C18.8519 14.1522 19.2164 14.3213 19.5297 14.5647L22.9887 17.2557C24.2322 18.2232 24.3462 20.0607 23.2332 21.1722L21.6822 22.7232C20.5722 23.8332 18.9132 24.3207 17.3667 23.7762C13.4085 22.3835 9.81464 20.1175 6.85173 17.1462C3.88066 14.1838 1.61464 10.5904 0.22173 6.63273C-0.32127 5.08773 0.16623 3.42723 1.27623 2.31723L2.82723 0.766232Z" fill="white"/>
</svg>
