<svg width="32" height="32" viewBox="0 0 32 32" fill="none" xmlns="http://www.w3.org/2000/svg">
<path d="M26.07 3.99653C25.749 4.01989 25.4339 4.0952 25.137 4.21953H25.133C24.848 4.33253 23.493 4.90253 21.433 5.76653L14.051 8.87553C8.754 11.1055 3.547 13.3015 3.547 13.3015L3.609 13.2775C3.609 13.2775 3.25 13.3955 2.875 13.6525C2.64332 13.8 2.44397 13.9928 2.289 14.2195C2.105 14.4895 1.957 14.9025 2.012 15.3295C2.102 16.0515 2.57 16.4845 2.906 16.7235C3.246 16.9655 3.57 17.0785 3.57 17.0785H3.578L8.461 18.7235C8.68 19.4265 9.949 23.5985 10.254 24.5595C10.434 25.1335 10.609 25.4925 10.828 25.7665C10.934 25.9065 11.058 26.0235 11.207 26.1175C11.2845 26.1626 11.367 26.1982 11.453 26.2235L11.403 26.2115C11.418 26.2155 11.43 26.2275 11.441 26.2315C11.481 26.2425 11.508 26.2465 11.559 26.2545C12.332 26.4885 12.953 26.0085 12.953 26.0085L12.988 25.9805L15.871 23.3555L20.703 27.0625L20.813 27.1095C21.82 27.5515 22.84 27.3055 23.379 26.8715C23.922 26.4345 24.133 25.8755 24.133 25.8755L24.168 25.7855L27.902 6.65653C28.008 6.18453 28.035 5.74253 27.918 5.31353C27.7973 4.87936 27.5188 4.50594 27.137 4.26653C26.8164 4.07165 26.4447 3.97758 26.07 3.99653ZM25.969 6.04653C25.965 6.10953 25.977 6.10253 25.949 6.22353V6.23453L22.25 25.1645C22.234 25.1915 22.207 25.2505 22.133 25.3095C22.055 25.3715 21.993 25.4105 21.668 25.2815L15.758 20.7505L12.188 24.0045L12.938 19.2145L22.594 10.2145C22.992 9.84453 22.859 9.76653 22.859 9.76653C22.887 9.31253 22.258 9.63353 22.258 9.63353L10.082 17.1765L10.078 17.1565L4.242 15.1915V15.1875L4.227 15.1845C4.23723 15.1811 4.24725 15.1771 4.257 15.1725L4.289 15.1565L4.32 15.1455C4.32 15.1455 9.531 12.9495 14.828 10.7195C17.48 9.60253 20.152 8.47753 22.207 7.60953C23.4257 7.09653 24.6457 6.58653 25.867 6.07953C25.949 6.04753 25.91 6.04753 25.969 6.04753V6.04653Z" fill="white"/>
</svg>
